# xmcd
#
# Track frame offsets:
#	182
#	19082
#	36817
#	51765
#	66225
#	81305
#	94240
#	107040
#	122947
#	140445
#	154897
#	177317
#	192902
#	206775
#	217625
#	233280
#	244337
#
# Disc length: 3462
#
# Revision: 1
# Processed by: cddbd v1.5.1PL0 Copyright (c) Steve Scherf et al.
# Submitted via: VisiTrax 2.9.5.181 - For more info visit www.synapsa.com
# Normalized: r0:DSETVAR1
#
DISCID=ed0d8411
DTITLE=Various Artist - Countryside - the best of the new American Country-Rock
DYEAR=1993
DGENRE=
TTITLE0=Tanya Tucker - Can't run from myself
TTITLE1=Tony Joe White - Steamy windows
TTITLE2=Johnny Cash - Goin' by the book
TTITLE3=Kentucky Headhunters - Rag top
TTITLE4=David Lynn Jones - Bonnie Jean (Little Sister)
TTITLE5=Chris LeDoux - Cadillac ranch
TTITLE6=Mike Reid - A man with a hammer
TTITLE7=Mary Chapin-Carpenter - I feel lucky
TTITLE8=Wynonna - I saw the light
TTITLE9=Collin Raye - In this life
TTITLE10=Kathy Mattea - From a distance
TTITLE11=Doug Stone - In a different light
TTITLE12=Sammy Kershaw - Don't go near the water
TTITLE13=Shania Twain - Dance with the one that brought you
TTITLE14=Toby Keith - Should've been a cowboy
TTITLE15=Ronna Reeves - We can hold our own
TTITLE16=Billy Ray Cyrus - Achy breaky heart
EXTD=
EXTT0=
EXTT1=
EXTT2=
EXTT3=
EXTT4=
EXTT5=
EXTT6=
EXTT7=
EXTT8=
EXTT9=
EXTT10=
EXTT11=
EXTT12=
EXTT13=
EXTT14=
EXTT15=
EXTT16=
PLAYORDER=
